<svg viewBox="0 0 72 72" fill="none" xmlns="http://www.w3.org/2000/svg">
  <rect x="4" y="20" width="64" height="34" rx="4" stroke="#22C55E" stroke-width="2.5"/>
  <rect x="4" y="50" width="64" height="4" rx="0" fill="#22C55E" opacity="0.2"/>
  <rect x="10" y="26" width="7" height="6" rx="1.5" stroke="#22C55E" stroke-width="1.8"/>
  <rect x="20" y="26" width="7" height="6" rx="1.5" stroke="#22C55E" stroke-width="1.8"/>
  <rect x="30" y="26" width="7" height="6" rx="1.5" stroke="#22C55E" stroke-width="1.8"/>
  <rect x="40" y="26" width="7" height="6" rx="1.5" stroke="#22C55E" stroke-width="1.8"/>
  <rect x="50" y="26" width="12" height="6" rx="1.5" stroke="#22C55E" stroke-width="1.8"/>
  <rect x="10" y="35" width="7" height="7" rx="1.5" stroke="#22C55E" stroke-width="1.8"/>
  <rect x="20" y="35" width="7" height="7" rx="1.5" stroke="#22C55E" stroke-width="1.8"/>
  <rect x="30" y="35" width="7" height="7" rx="1.5" stroke="#22C55E" stroke-width="1.8"/>
  <rect x="40" y="35" width="7" height="7" rx="1.5" stroke="#22C55E" stroke-width="1.8"/>
  <rect x="56" y="35" width="6" height="7" rx="1.5" stroke="#22C55E" stroke-width="1.8"/>
  <rect x="18" y="44" width="36" height="7" rx="2" stroke="#22C55E" stroke-width="2"/>
</svg>